<svg id="Слой_1" data-name="Слой 1" xmlns="http://www.w3.org/2000/svg" viewBox="0 0 365.2 1265.2"><defs><style>.cls-1{fill:#ff7f75;}.cls-2{fill:#ffd547;}.cls-3{fill:#ffa19a;}.cls-4{fill:#1a74a4;}.cls-5{fill:#59b754;}.cls-6{fill:#fff;}.cls-7{fill:#5cbb56;}.cls-8{fill:#ffdf75;}.cls-9{fill:#7cd1ff;}</style></defs><path class="cls-1" d="M.5,566.1c105.8,0,191.6,85.8,191.6,191.6S106.3,949.2.5,949.2" transform="translate(-0.5 -49)"/><path class="cls-2" d="M.5,722.8a301.9,301.9,0,0,1,59-5.8C229.3,717,396,920.2,361,1018.5c-32.2,90.2-216.8,48-318,197.5-25.7,38-37.1,75.2-42.5,98.2" transform="translate(-0.5 -49)"/><line x1="119.5" y1="332" x2="54.5" y2="337"/><path d="M120,380.6l-22,1.7L63,385l-8,.6c-.5.1-.5.8,0,.8l22-1.7,35-2.7,8-.6c.5-.1.5-.8,0-.8Z" transform="translate(-0.5 -49)"/><line x1="54" y1="336.5" x2="28" y2="258.5"/><path d="M54.9,385.4,46.1,359,32,317l-3.1-9.6a.4.4,0,0,0-.8.2L36.9,334,51,376l3.1,9.6a.4.4,0,0,0,.8-.2Z" transform="translate(-0.5 -49)"/><ellipse class="cls-3" cx="54.5" cy="336.9" rx="29" ry="29.1"/><ellipse class="cls-4" cx="119.7" cy="331.9" rx="14.8" ry="15.1"/><ellipse class="cls-5" cx="28.3" cy="259" rx="9.2" ry="9"/><ellipse class="cls-6" cx="54.4" cy="337.3" rx="7.1" ry="6.7"/><ellipse class="cls-1" cx="27.8" cy="258.5" rx="3.7" ry="3.5"/><ellipse class="cls-6" cx="119.7" cy="332.4" rx="3.7" ry="3.5"/><ellipse class="cls-7" cx="226.6" cy="38.6" rx="32.9" ry="33"/><ellipse class="cls-8" cx="180.7" cy="86.2" rx="60.8" ry="60.9"/><ellipse class="cls-9" cx="148.1" cy="52.8" rx="52.7" ry="52.8"/></svg>