<svg id="Слой_1" data-name="Слой 1" xmlns="http://www.w3.org/2000/svg" viewBox="0 0 1920.2 854.1"><defs><style>.cls-1{fill:#0c9b03;opacity:0.67;}.cls-2{fill:#50c2ff;}</style></defs><path class="cls-1" d="M984.9,0C902.2,72.5,850,178.9,850,297.5,850,515.9,1027.1,693,1245.5,693S1641,515.9,1641,297.5c0-118.6-52.2-225-134.9-297.5" transform="translate(0.2 0)"/><path class="cls-2" d="M1506.1,0H1920V.2h0V.5l-.2.3A4.3,4.3,0,0,0,1919,2a7.2,7.2,0,0,1-2,2c-3.5,2.3-6,5.8-9.1,8.6s-9.5,9.2-24.9,25.4c-14.9,19.6-37.1,32.5-62,47-5.6,3.3-24.3,13.7-54.6,24.9-37.8,14-70.2,19.6-94.4,23.3-50.4,7.7-181.9,27.8-290.1,89.3-78.2,44.5-122.9,98.5-149,130.7-19.9,24.6-27.7,39.9-52.7,81.3C1101.8,564.2,1062.6,629,1027,668c-25.4,27.8-90.3,97.3-196,139-55.1,21.7-100.4,27.6-172,37-43,5.6-110.3,14.1-198,8-91.2-6.3-139.1-9.6-195-40-81.1-44.1-120.3-113.4-136-142-13-23.6-60.3-112.4-48-219,4.7-41.2,16.2-65.8,15-124-.5-24.2-1.4-59.2-14-101C60.7,152,24.3,136.7,8,62A376.4,376.4,0,0,1-.2,0H1920" transform="translate(0.2 0)"/><path class="cls-2" d="M1119.1,0h387" transform="translate(0.2 0)"/><path class="cls-2" d="M984.9,0h130" transform="translate(0.2 0)"/><path class="cls-2" d="M-53,658" transform="translate(0.2 0)"/><path class="cls-2" d="M1920,.5v0Z" transform="translate(0.2 0)"/></svg>