<svg id="Слой_1" data-name="Слой 1" xmlns="http://www.w3.org/2000/svg" viewBox="0 0 368.3 511.8"><defs><style>.cls-1{fill:#51362a;}.cls-2{fill:#f6931e;}.cls-3{fill:#402a21;}.cls-4{fill:#fccb9a;}.cls-5{fill:#fbbb84;}.cls-6{fill:#f26c21;}.cls-7{fill:#fbbb85;}.cls-8{fill:#3b2519;}.cls-9{fill:#f6945e;}.cls-10{fill:#fbbc86;}.cls-11{fill:#554033;}.cls-12{fill:#f9f9f9;}.cls-13{fill:#fafafa;}</style></defs><path class="cls-1" d="M274,.1,294.9,4c26.7,5.4,50.7,16.6,71.3,34.7,6.4,5.5,12.4,11.2,19.9,15.5,22.3,12.8,33.6,33.6,38.6,57.9,6.4,30.5,3.9,60.9-2.2,91.1-.7,3.5-2.6,6.9-1.5,10.7a13.1,13.1,0,0,1-.1,4.4c-3.8,13.8-8.1,27.4-15.1,40-1.8,3.2-3.6,6.6-8.3,5.8s-4.6-5.1-5.4-8.5c-2.3-9.2-2.7-18.8-4.1-28.1-1.8-11-3.1-22.1-7.7-32.5-3.2-7.4-7.8-13.3-15.4-16.8-12.7-6-21.8-16.3-31.1-26.3l-1.2-1.6c-5.6-6.6-5.5-6.5-13.9-3.6A296.7,296.7,0,0,1,253.5,161a290.8,290.8,0,0,1-55.2.3c-13.4-1.1-26.9-.4-40,3.9-22.4,7.5-37.2,29.1-36.3,50.3.4,10.3.1,20.6.1,31a49.5,49.5,0,0,1-2,13.8c-1,3.2-2.2,6.3-5.5,7.9s-6.8-.1-9.2-3.1a23.2,23.2,0,0,1-2.9-5.1c-5.6-13.8-8.1-28.3-9.6-43a7.3,7.3,0,0,1,1.1-4.8c-2.1-22.8-4.2-45.6-4-68.6.1-18.5,2.1-36.7,8.1-54.4,9.2-27,26.8-46.7,51.3-60.7S203.5,5.9,232.9,1.9c3-.4,6.3.1,9.1-1.8h4a98.3,98.3,0,0,0,23,0Z" transform="translate(-71.8 -0.1)"/><path class="cls-2" d="M313,424c40.3,10.1,77.6,26.2,108.6,54.8,7.2,6.7,13.3,14.4,16.7,23.9,1.1,3,2,6,1.6,9.2H72.1c-.1-10.2,5.1-18,11.2-25.4,12.4-14.9,28.1-25.7,44.9-35a263.9,263.9,0,0,1,71.7-27.7c3.4-.3,5.3,2.3,7.5,4.2,14.7,13.6,32.1,20.8,52.1,19.7a76,76,0,0,0,47.3-19.9C308.7,426.2,310.3,424.2,313,424Z" transform="translate(-71.8 -0.1)"/><path class="cls-3" d="M269,.1a54.1,54.1,0,0,1-23,0Z" transform="translate(-71.8 -0.1)"/><path class="cls-4" d="M114.1,267.1c5.3-5.2,5.6-12.2,5.9-19,.4-11.1.4-22.3-.1-33.4-.8-18.9,12.3-41,33.2-49.7,15.3-6.3,31.1-6.9,47.1-5.5,41.8,3.6,82.3-2.1,121.7-16.3,4-1.4,6.3-1.3,9.2,2.3a151.8,151.8,0,0,0,20,20.9c4.3,3.7,8.7,7.3,13.9,9.5,9.5,4,14.8,11.5,18.2,20.8,5.5,14.8,6.5,30.4,8.7,45.9.7,4.4,1.3,8.9,2.1,13.3.6,2.7,1.4,5.5,4,7.3a3,3,0,0,1,2,3.5,115,115,0,0,1-4.2,21.8,5.7,5.7,0,0,1-2.7,2.8c-6.2,23.4-15.7,45.1-32,63.3-17.9,20.3-40.6,32.1-66.9,37.4-1.6,2.6-4.3,3-6.9,3.5a189.3,189.3,0,0,1-54.2,1.2c-1.6-.2-3.2-.8-4.5-1,5.4,1.9,11.1,4,17,5.8a93,93,0,0,0,18,3.8c7.8.7,15.5,2.2,23.4,1.1,5.3-.7,6.4.5,6.5,5.8,0,2.7-.1,5.3,0,8s-2.7,4.9-5,6.4c-6.6,4.2-13.6,7.1-21.4,7.8-15.2,1.5-30,1.2-43.3-7.7-2.6-1.7-5.7-3.2-5.8-7,0-7.1-.3-14.3.2-21.4.2-4.5-1-6.4-5.7-7.5-24.2-5.7-45.1-17.4-61.6-36.2-13.8-15.5-23-33.5-29-53.3l-3-10a5.7,5.7,0,0,1-2.7-2.8,83.9,83.9,0,0,1-3.6-17.8A4.3,4.3,0,0,1,114.1,267.1Z" transform="translate(-71.8 -0.1)"/><path class="cls-5" d="M114.1,267.1a131.3,131.3,0,0,0,4.8,24.2c-20.3,5.7-37.1-6.3-44-23.9-8.2-20.9.1-44.7,19.1-55.2,1.9,13,3.6,26,7.2,38.7a58.5,58.5,0,0,0,4.9,11.9C107.7,266,110.1,268.2,114.1,267.1Z" transform="translate(-71.8 -0.1)"/><path class="cls-6" d="M218,419.7c16.6,17.4,53.5,17.3,70.8,4.4,1.6-1.2,3.3-2.3,4.3-4.1a.5.5,0,0,1,.9-.2c6.5.9,12.9,1.9,19,4.2-12.4,14.3-28.5,22.1-46.9,24.8-24.1,3.7-44.4-4.5-61.8-21-1.4-1.4-2.9-2.7-4.4-4C205.7,421.4,211.9,420.8,218,419.7Z" transform="translate(-71.8 -0.1)"/><path class="cls-5" d="M393.1,291.3c2.7-8.4,3.8-17.1,5.4-25.8a6.4,6.4,0,0,0-.5-2.3c2.8.1,3.9-2.1,5.1-4.1,7.7-12.5,11.6-26.6,15.7-40.6.5-1.6.2-3.7,2.2-4.6,26.1,17.3,25.3,58.5-1.5,74.4C411.2,293.3,402.3,293.8,393.1,291.3Z" transform="translate(-71.8 -0.1)"/><path class="cls-7" d="M294,419.8l-.9.2c0-2.6-.2-5.3-.1-7.9s-1.2-4.5-4.4-4.1c-14.8,2-29.1-.7-43.3-4.5-8.4-2.3-16.7-5-24.1-10.2,24.4,3.9,48.8,4,73-1.3C294.1,401.3,294.1,410.6,294,419.8Z" transform="translate(-71.8 -0.1)"/><path class="cls-8" d="M319.1,228.8c1.1-4.1,4.9-4.6,8.1-5.4,5.9-1.4,12.5,2.1,15.8,8a18.7,18.7,0,0,1-1.8,21c-4.5,5.2-11.1,7-17.1,4.5A16.2,16.2,0,0,1,314,243.1c-.6-5.5-.3-10.9,5.2-14.4a10.5,10.5,0,0,1,1.1,4.2,2.3,2.3,0,0,0,2.4,2.1,1.8,1.8,0,0,0,2-1.7,2.5,2.5,0,0,0-1.7-2.7C321.7,230,319.9,230.4,319.1,228.8Z" transform="translate(-71.8 -0.1)"/><path class="cls-8" d="M174.9,226.9c6.6-4.9,13.2-5,19.1-.1s8,14.7,4.2,22.2-10.6,10.3-17.4,8.5a17,17,0,0,1-12.2-17.3c.1-3.7.8-7.3,3.4-10.2a1.2,1.2,0,0,1,1.3-.2c1.1.9,1.3,2.2,1.9,3.4a2.4,2.4,0,0,0,2.7,1.7,2.1,2.1,0,0,0,1.4-1.2c.6-1.3,0-2.2-1-3s-2-1.1-2.9-1.9A1.7,1.7,0,0,1,174.9,226.9Z" transform="translate(-71.8 -0.1)"/><path class="cls-1" d="M185.2,176.6c8.6.4,17.3,1.6,22.3,10.6a16.1,16.1,0,0,1,1.5,4.7c.4,2.3.8,4.9-1.2,6.6s-3.8-.5-5.5-1.2c-10.6-4.8-21.4-5.7-32.4-1.5a43.4,43.4,0,0,1-4.8,1.4c-2.3.7-4.8,1.4-6.6-.6s-1-5.1.2-7.5c4-7.7,11.1-10.6,19.1-11.9C180.1,176.8,182.4,176.8,185.2,176.6Z" transform="translate(-71.8 -0.1)"/><path class="cls-1" d="M327.7,176.7c6.5.1,12.9,1,18.5,4.8a22.9,22.9,0,0,1,5.2,4.6c2.2,2.9,4.6,6.5,2.3,10s-6.2,1.6-9.1.4c-12.5-4.9-24.7-4.4-36.6,1.6-3.6,1.8-5,.3-5.1-3.1-.4-6.1,2.3-10.6,7.1-14S321.4,176.7,327.7,176.7Z" transform="translate(-71.8 -0.1)"/><path class="cls-7" d="M255.3,312a28.2,28.2,0,0,1-16.9-3.8,15,15,0,0,1-7.2-9.8c-.3-1.2-.7-2.8.6-3.6s2.2.2,3.2.7a83.8,83.8,0,0,0,13.9,5.5c9.7,2.6,18.2-.9,26.7-4.8,1.4-.6,3-2.4,4.5-1.1s.9,3.7,0,5.6c-3.6,8-10.7,10.3-18.6,11.2A40.6,40.6,0,0,1,255.3,312Z" transform="translate(-71.8 -0.1)"/><path class="cls-9" d="M216.5,332.8a2.4,2.4,0,0,1,2.7-.5,103.9,103.9,0,0,0,33.9,7.3c12.7.6,25.1-2.3,37.1-6.3l2.8-1.1c.8-.2,1.8-.4,2.1.5s-.2,1.3-.5,1.9a12.1,12.1,0,0,1-5.4,4.3c-12.9,5.9-26.7,6.4-40.5,5.7-7.1-.5-14.3-1.1-21-3.6C223.2,339.3,218.6,337.7,216.5,332.8Z" transform="translate(-71.8 -0.1)"/><path class="cls-10" d="M247.2,351.4c6.2,2.9,11.2,3.7,16.3.3,0,4.1-.9,5.2-5.9,5.8S249.4,357.7,247.2,351.4Z" transform="translate(-71.8 -0.1)"/><path class="cls-11" d="M173.4,230.1H172a5,5,0,0,1,2.9-3.1l1.3,1.2C176.2,230.1,175,230.4,173.4,230.1Z" transform="translate(-71.8 -0.1)"/><path class="cls-12" d="M319.1,228.8a23,23,0,0,1,2.8-.6c3.1-.2,5.1,1.3,5.3,4.5s-1.8,5-4.9,4.8-4.7-2.4-4.2-5.5a14.2,14.2,0,0,1,1.1-3.3Z" transform="translate(-71.8 -0.1)"/><path class="cls-13" d="M173.4,230.1l2.8-2c3.1,0,5.6,1,5.8,4.5s-1.3,4.4-3.9,4.8S172.5,235.2,173.4,230.1Z" transform="translate(-71.8 -0.1)"/></svg>