<svg id="Слой_1" data-name="Слой 1" xmlns="http://www.w3.org/2000/svg" viewBox="0 0 22.7 22.9"><defs><style>.cls-1{fill:#ffd543;}.cls-2{fill:#50c2ff;}.cls-3{fill:#ffd537;}.cls-4{fill:#ffd542;}.cls-5{fill:#ffd547;}.cls-6{fill:#50c1ff;}</style></defs><path class="cls-1" d="M8.5,19.3C3.4,17.7,2.9,12.4.2,8.8V4A7.8,7.8,0,0,1,4,.2H5.9c.5.9,1.3,1.7,1,2.9-4,3.3-4.1,4.2-1.4,8.8,1.3,2.3,3.6,4,4.3,6.6C9.7,19.2,9.4,19.8,8.5,19.3Z" transform="translate(-0.2 -0.2)"/><path class="cls-2" d="M9.7,18.4C6.2,16.2,4.6,12.6,3,9.1s-.7-5.3,3.9-6a1.4,1.4,0,0,1,.9,0c1.3,1.2,1.7,2.6.4,4.1s-1.8,2.9-.3,4.7,2.7,2.5,3.2,4.4a2.5,2.5,0,0,1-.8,1.8Z" transform="translate(-0.2 -0.2)"/><path class="cls-1" d="M20.1,15.5c2-.2,3.4.9,2.6,2.6S19.9,22.6,17,23a4.4,4.4,0,0,1-3.5-1c-.3-1.2.6-1.4,1.3-1.8,2.4-.6,3.6-2.4,4.8-4.4Z" transform="translate(-0.2 -0.2)"/><path class="cls-3" d="M10.6,16.4a28.6,28.6,0,0,1-4.2-5C5.1,9.2,5.6,7.8,7.7,6.8s1.4.1,1.1,1.1c-2,4.3,2.5,5,4.1,7.3a2,2,0,0,1-1.1,1.4A1.1,1.1,0,0,1,10.6,16.4Z" transform="translate(-0.2 -0.2)"/><path class="cls-4" d="M15.7,21a2.6,2.6,0,0,0-2.2,1,7.6,7.6,0,0,1-5-2.7l1.2-.9v-.3C12.2,18,14.4,18.4,15.7,21Z" transform="translate(-0.2 -0.2)"/><path class="cls-4" d="M8.8,7.9,7.7,6.8c1.1-1.2-.1-2.5.1-3.7C11.9,3.9,11.6,5.7,8.8,7.9Z" transform="translate(-0.2 -0.2)"/><path class="cls-4" d="M15.3,14.4c2.3-3.1,3.9-2.8,4.8,1.1h.1c-1.2,1.1-2.4.6-3.7.4A1.7,1.7,0,0,1,15.3,14.4Z" transform="translate(-0.2 -0.2)"/><path class="cls-5" d="M15.3,14.4l1,1.1c-1,3.4-2.5,3.8-4.7.9l1.3-1.2Z" transform="translate(-0.2 -0.2)"/><path class="cls-6" d="M11.6,16.4c2,1.8,3.5,1.2,4.7-.9s2.6.1,3.9-.1c.1,3.2-1.3,5.1-4.5,5.6l-6-2.9.9-1.7Z" transform="translate(-0.2 -0.2)"/></svg>